<?xml version="1.0" standalone="no"?>
<!DOCTYPE svg PUBLIC "-//W3C//DTD SVG 20010904//EN"
 "http://www.w3.org/TR/2001/REC-SVG-20010904/DTD/svg10.dtd">
<svg version="1.0" xmlns="http://www.w3.org/2000/svg"
 width="700.000000pt" height="700.000000pt" viewBox="0 0 700.000000 700.000000"
 preserveAspectRatio="xMidYMid meet">
<g transform="translate(0.000000,700.000000) scale(0.100000,-0.100000)"
fill="#000000" stroke="none">
<path d="M1629 6710 c-1 -8 -2 -45 -3 -82 l-1 -68 166 0 166 0 -1 -3027 -1
-3028 -162 0 c-139 1 -163 -2 -164 -15 -5 -70 -4 -142 2 -146 8 -4 431 -5
2681 -4 l1146 0 -1 82 -2 83 -160 0 c-88 -1 -162 2 -165 6 -3 4 -5 685 -4
1513 1 829 -3 1509 -7 1512 -5 3 -61 7 -126 9 -65 2 -134 6 -153 9 -19 2 -66
7 -105 11 -38 3 -77 8 -85 10 -8 3 -40 7 -70 10 -262 26 -816 261 -1330 565
-63 37 -164 101 -225 142 l-110 75 -3 1096 -2 1097 392 0 c249 0 407 -4 432
-11 54 -15 177 -140 258 -264 148 -223 287 -553 328 -775 16 -89 27 -115 55
-130 18 -10 28 -10 51 2 31 14 35 23 95 218 120 390 283 661 572 954 83 84
111 125 101 150 -3 9 -16 17 -28 17 -11 1 -812 2 -1778 3 -1574 2 -1758 0
-1759 -14z m1321 -2587 c14 -10 39 -25 55 -34 17 -9 286 -167 600 -353 l570
-337 0 -1447 0 -1447 -632 0 -633 0 0 1817 c0 1000 3 1818 8 1818 4 0 19 -8
32 -17z"/>
</g>
</svg>
