<svg height="120pt" viewBox="0 0 120 120" width="120pt" xmlns="http://www.w3.org/2000/svg" xmlns:xlink="http://www.w3.org/1999/xlink"><defs><path id="a" d="m-76.3957 114.193h7466.6657"/></defs><g fill="#085b3c"><text stroke="#085b3c" stroke-linejoin="round" stroke-width="0"><textPath method="align" startOffset="0pt" xlink:href="#a"><![CDATA[tБ]]></textPath></text><path d="m93.5606 114.193v-2.844h-5.6747v-17.3474-17.3476-17.3476c-.1891 0-.993-.0237-2.4117-.0711s-3.1211-.1896-5.1072-.4266c-1.9861-.2369-3.5467-.4976-4.6816-.782-3.2156-.948-6.384-2.1566-9.5051-3.626-3.121-1.4693-5.8874-2.8912-8.2992-4.2658-2.4117-1.3745-4.3505-2.5594-5.8165-3.5548s-2.1989-1.493-2.1989-1.493v-12.5131-12.513-12.51303h13.3354c.8512 0 1.8443.59247 2.9792 1.77742 1.135 1.18491 2.2463 2.72541 3.3339 4.62131s2.0807 3.9814 2.9792 6.2565 1.4896 4.4554 1.7733 6.5409c.1892.7584.5675 1.1375 1.135 1.1375.662 0 1.0876-.3791 1.2768-1.1375 1.1349-4.2658 2.5536-7.9154 4.256-10.9489s3.8777-5.7825 6.5258-8.24723c.6621-.66357 1.1823-1.30344 1.5606-1.91962.3783-.61617-.0946-.92425-1.4187-.92425h-14.9315-14.9314-14.9315-14.9315v2.84387h5.6747v17.30023 17.3002 17.3002 17.3002 17.3002 17.3h-5.6747v2.844h16.4211 16.4211 16.421zm-21.9893-2.844h-10.8528-10.8528v-15.6055-15.6057-15.6058-15.6057l10.8528 6.3987 10.8528 6.3987v16.5419 16.5418z"/></g></svg>
